<svg id="图层_1" data-name="图层 1" xmlns="http://www.w3.org/2000/svg" viewBox="0 0 173.99 173.99"><defs><style>.cls-1,.cls-2{fill:#3884ff;}.cls-1{opacity:0.2;}</style></defs><title>icon-FAQ</title><circle class="cls-1" cx="87" cy="87" r="87"/><path class="cls-2" d="M697,1738.3c0-5.75-3.8-9.43-9.78-9.43-5.06,0-9.09,2.65-12.77,6.44l-9.32-8.51c6-6.79,14.15-11.51,24.16-11.51,13.8,0,23.93,7.13,23.93,21.86,0,16.34-20,21.86-18.29,38.08H680.24C677.48,1756.71,697,1749.35,697,1738.3Zm-19.9,56.49c0-6.21,4.49-11,10.47-11s10.58,4.83,10.58,11-4.49,11-10.58,11S677.13,1801,677.13,1794.79Z" transform="translate(-602.22 -1673.57)"/></svg>