<svg id="图层_1" data-name="图层 1" xmlns="http://www.w3.org/2000/svg" viewBox="0 0 24.83 19.66"><defs><style>.cls-1,.cls-2{fill:#3884ff;}.cls-2{opacity:0.45;}.cls-3{fill:#fbfcfd;}</style></defs><title>icon-two</title><path class="cls-1" d="M642.28,654.14a6.69,6.69,0,0,1,6.73-5.7h6.15a.06.06,0,0,0,.06-.06v-3.21a.06.06,0,0,0-.06-.06H632.39a2,2,0,0,0-2,2v15.66a2,2,0,0,0,2,2h22.77a.06.06,0,0,0,.06-.06v-3.21a.06.06,0,0,0-.06-.06h-6.43A6.51,6.51,0,0,1,642.28,654.14Z" transform="translate(-630.39 -645.12)"/><path class="cls-2" d="M644.23,654.95a4.51,4.51,0,0,0,4.5,4.5h6.49v-9h-6.49A4.51,4.51,0,0,0,644.23,654.95Z" transform="translate(-630.39 -645.12)"/><path class="cls-3" d="M648.73,659.45a4.5,4.5,0,1,1,0-9h6.49v-2h-6.49a6.5,6.5,0,1,0,0,13h6.49v-2Z" transform="translate(-630.39 -645.12)"/></svg>