<svg id="图层_1" data-name="图层 1" xmlns="http://www.w3.org/2000/svg" viewBox="0 0 41 43.94"><defs><style>.cls-1{fill:#1cd39b;}.cls-2{fill:#fff;}.cls-3{fill:#2f66f2;}</style></defs><title>logo</title><path class="cls-1" d="M20.63.07V3.74A8.13,8.13,0,0,1,25,6.12a10.92,10.92,0,0,1,2.7,7.09l.05.83H23.06L23,13.32a6.3,6.3,0,0,0-1.44-3.8A4.07,4.07,0,0,0,18.4,8.28a4.67,4.67,0,0,0-3.53,1.4,4.93,4.93,0,0,0-1.37,3.62,4.36,4.36,0,0,0,.39,1.94,4.25,4.25,0,0,0,1.29,1.47A14.6,14.6,0,0,0,19,18.35c1.17.37,2.07.68,2.69.92a11.11,11.11,0,0,1,5.1,3.53,9.43,9.43,0,0,1,1.6,5.68,12.28,12.28,0,0,1-2.88,8.45,9.45,9.45,0,0,1-4.91,3v4A22,22,0,0,0,41,22h0A22,22,0,0,0,20.63.07Z" transform="translate(0 -0.01)"/><path class="cls-2" d="M25.54,36.94a12.28,12.28,0,0,0,2.88-8.45,9.43,9.43,0,0,0-1.6-5.68,11.11,11.11,0,0,0-5.1-3.53c-.61-.24-1.52-.55-2.69-.92a14.6,14.6,0,0,1-3.85-1.64,4.25,4.25,0,0,1-1.29-1.47,4.36,4.36,0,0,1-.39-1.94,4.93,4.93,0,0,1,1.37-3.62,4.67,4.67,0,0,1,3.53-1.4,4.07,4.07,0,0,1,3.16,1.25A6.3,6.3,0,0,1,23,13.32l.07.71h4.69l-.05-.83A10.92,10.92,0,0,0,25,6.12a8.13,8.13,0,0,0-4.37-2.38V.07Q19.84,0,19,0H15.79V3.82a9.07,9.07,0,0,0-4.47,2.52,9.87,9.87,0,0,0-2.74,7.17,8.52,8.52,0,0,0,1.82,5.62,12.64,12.64,0,0,0,5.71,3.48l.84.28c4.42,1.46,6.56,3.48,6.56,6.19A6.22,6.22,0,0,1,22,33.55a5.31,5.31,0,0,1-4.1,1.6A4.89,4.89,0,0,1,14,33.55a6.77,6.77,0,0,1-1.57-4.49l0-.76H7.68v.8a11.79,11.79,0,0,0,2.85,8A9.15,9.15,0,0,0,15.79,40V44H19q.81,0,1.6-.06v-4A9.45,9.45,0,0,0,25.54,36.94Z" transform="translate(0 -0.01)"/><path class="cls-3" d="M16.94,22.89l-.84-.28a12.64,12.64,0,0,1-5.71-3.48A7.46,7.46,0,0,1,9,16.52a10.2,10.2,0,0,1-.42-3,9.87,9.87,0,0,1,2.74-7.17,9.07,9.07,0,0,1,4.47-2.52V0H1.71A1.71,1.71,0,0,0,0,1.72V42.24A1.71,1.71,0,0,0,1.71,44H15.79V40a9.11,9.11,0,0,1-4.55-2.23c-.24-.22-.47-.44-.69-.69a11.79,11.79,0,0,1-2.85-8v-.8h4.77l0,.76A6.77,6.77,0,0,0,14,33.55a4.89,4.89,0,0,0,3.84,1.6,5.31,5.31,0,0,0,4.1-1.6,6.22,6.22,0,0,0,1.52-4.47C23.51,26.38,21.36,24.35,16.94,22.89Z" transform="translate(0 -0.01)"/></svg>