<svg id="图层_1" data-name="图层 1" xmlns="http://www.w3.org/2000/svg" viewBox="0 0 43.92 44.28"><defs><style>.cls-1{fill:#fff;fill-rule:evenodd;}</style></defs><title>88</title><path class="cls-1" d="M22,.19H20.52V10.33c2.9.07,5.8-.13,7.69.09l-.12,6s-6,.32-8.42.35c-1.88,0-1.16,1.07-.37,1.22a46.66,46.66,0,0,1,6.83,2c1.51.73,2.45,1.31,2.93,4.88s-.8,8.77-8.17,8.91h-.37V44.47H22A22.14,22.14,0,1,0,22,.19Z" transform="translate(-0.27 -0.19)"/><path class="cls-1" d="M10.64,33.36l.24-6.1a78.42,78.42,0,0,0,9.27-.11c1.58-.22.73-1,.73-1s-5.47-1-7.32-2-4-2.89-2.81-9.18c.6-3.24,3.93-4.51,7.69-4.69V.19h-14A4.21,4.21,0,0,0,.27,4.4V40.27a4.21,4.21,0,0,0,4.21,4.21h14V33.73C13,33.56,10.64,33.36,10.64,33.36Z" transform="translate(-0.27 -0.19)"/></svg>