<?xml version="1.0" standalone="no"?><!DOCTYPE svg PUBLIC "-//W3C//DTD SVG 1.1//EN" "http://www.w3.org/Graphics/SVG/1.1/DTD/svg11.dtd"><svg t="1545795046889" class="icon" style="" viewBox="0 0 1025 1024" version="1.1" xmlns="http://www.w3.org/2000/svg" p-id="8201" xmlns:xlink="http://www.w3.org/1999/xlink" width="16" height="16"><defs><style type="text/css"></style></defs><path d="M512.001251 0C229.230705 0 0 229.230705 0 512.001251c0 282.769295 229.231956 512 512.001251 512S1024.002503 794.770547 1024.002503 512.001251C1024.002503 229.230705 794.771798 0 512.001251 0L512.001251 0zM512.001251 959.882069c-247.357599 0-447.880818-200.523219-447.880818-447.880818 0-247.35885 200.521968-447.880818 447.880818-447.880818S959.882069 264.642401 959.882069 512.001251C959.882069 759.35885 759.35885 959.882069 512.001251 959.882069L512.001251 959.882069z" p-id="8202" fill="#ffffff"></path><path d="M412.335238 403.381275c0 0 16.059826-98.832679 114.893756-87.71405 98.832679 11.119881 76.594169 85.244077 66.711777 100.068917C584.057127 440.444625 492.636868 499.743982 477.812029 535.571094c-14.824839 35.827112-13.589853 102.538889-13.589853 102.538889l88.950287 0c0 0-4.942447-70.417987 44.474518-100.068917 49.416965-29.649679 133.423554-116.127491 96.361456-198.900345-59.299357-95.126469-117.363728-105.010113-192.722911-102.538889-75.360434 2.471224-154.427078 39.532071-180.370547 154.424575C382.685559 399.675065 412.335238 403.381275 412.335238 403.381275L412.335238 403.381275z" p-id="8203" fill="#ffffff"></path><path d="M462.987189 707.752193 555.642435 707.752193 555.642435 809.042332 462.987189 809.042332 462.987189 707.752193Z" p-id="8204" fill="#ffffff"></path></svg>
