<?xml version="1.0" standalone="no"?><!DOCTYPE svg PUBLIC "-//W3C//DTD SVG 1.1//EN" "http://www.w3.org/Graphics/SVG/1.1/DTD/svg11.dtd"><svg t="1548814419452" class="icon" style="" viewBox="0 0 1024 1024" version="1.1" xmlns="http://www.w3.org/2000/svg" p-id="3821" xmlns:xlink="http://www.w3.org/1999/xlink" width="32" height="32"><defs><style type="text/css"></style></defs><path d="M514.133333 64C341.333333 64 183.466667 164.266667 108.8 320c-4.266667 10.666667 0 23.466667 10.666667 27.733333 10.666667 4.266667 23.466667 0 27.733333-10.666666C215.466667 198.4 358.4 106.666667 514.133333 106.666667c224 0 405.333333 181.333333 405.333334 405.333333s-181.333333 405.333333-405.333334 405.333333c-206.933333 0-379.733333-153.6-403.2-358.4-2.133333-10.666667-12.8-19.2-23.466666-19.2-10.666667 2.133333-19.2 12.8-19.2 23.466667C96 789.333333 288 960 514.133333 960c247.466667 0 448-200.533333 448-448s-200.533333-448-448-448z" fill="#ffffff" p-id="3822"></path><path d="M93.866667 441.6m-32 0a32 32 0 1 0 64 0 32 32 0 1 0-64 0Z" fill="#ffffff" p-id="3823"></path><path d="M488.533333 550.4H725.333333c12.8 0 21.333333-8.533333 21.333334-21.333333s-8.533333-21.333333-21.333334-21.333334H509.866667V292.266667c0-12.8-8.533333-21.333333-21.333334-21.333334s-21.333333 8.533333-21.333333 21.333334v236.8c0 10.666667 8.533333 21.333333 21.333333 21.333333z" fill="#ffffff" p-id="3824"></path></svg>